<svg width="90" height="22" viewBox="0 0 90 22" fill="none" xmlns="http://www.w3.org/2000/svg">
<path fill-rule="evenodd" clip-rule="evenodd" d="M7.0305 0.419434L1.29446 0.464417C1.12371 0.463493 0.954472 0.496509 0.796576 0.561523C0.638681 0.626538 0.495272 0.72225 0.374675 0.84314C0.254079 0.964029 0.158696 1.10769 0.0940647 1.26575C0.0294332 1.4238 -0.00315973 1.5931 -0.001822 1.76385C-0.00048428 1.93461 0.0347573 2.10342 0.101857 2.26044C0.168957 2.41746 0.266579 2.5596 0.389055 2.67859C0.511531 2.79757 0.656421 2.89102 0.815316 2.95355C0.974211 3.01609 1.14394 3.04645 1.31466 3.04285L7.03559 2.99786C8.38551 2.99786 9.35638 3.00884 9.96219 3.11694C10.568 3.22514 10.7647 3.33134 11.0597 3.68304C11.6498 4.38644 12.3625 6.65276 13.5562 11.3193C14.75 15.9859 15.2258 18.365 16.5755 19.9739C17.2504 20.7783 18.2114 21.2453 19.1949 21.4209C20.1785 21.5965 21.2285 21.5804 22.5751 21.5804H22.5801L28.3158 21.5354C28.4873 21.5375 28.6575 21.5054 28.8164 21.441C28.9754 21.3765 29.1198 21.281 29.2414 21.16C29.363 21.039 29.4592 20.895 29.5244 20.7363C29.5896 20.5777 29.6225 20.4076 29.6211 20.2361C29.6198 20.0646 29.5842 19.8951 29.5166 19.7375C29.4489 19.5799 29.3505 19.4374 29.227 19.3183C29.1036 19.1992 28.9577 19.1059 28.7977 19.0439C28.6378 18.982 28.4671 18.9525 28.2957 18.9573L22.5751 19.0023C21.2252 19.0023 20.254 18.9913 19.6482 18.8831C19.0423 18.775 18.846 18.6691 18.551 18.3174C17.9609 17.614 17.2479 15.3474 16.0541 10.6808C14.8603 6.01427 14.3849 3.63515 13.0352 2.02625C12.3603 1.22185 11.399 0.754824 10.4154 0.579224C9.43187 0.403624 8.38216 0.419739 7.03559 0.419739L7.0305 0.419434ZM82.0069 0.419434C81.0974 0.419434 80.3222 0.447418 79.5846 0.578918C78.601 0.754518 77.64 1.22154 76.9652 2.02594C75.6155 3.63484 75.1397 6.01396 73.9459 10.6805C72.7521 15.3471 72.0394 17.6137 71.4494 18.3171C71.1543 18.6688 70.9577 18.7747 70.3519 18.8828C69.7478 18.9907 68.7788 19.002 67.435 19.002L61.7043 18.957C61.5329 18.9522 61.3622 18.9817 61.2023 19.0436C61.0424 19.1056 60.8964 19.1989 60.773 19.318C60.6495 19.4371 60.5511 19.5796 60.4834 19.7372C60.4158 19.8948 60.3802 20.0643 60.3789 20.2358C60.3776 20.4073 60.4105 20.5774 60.4757 20.736C60.5409 20.8947 60.6371 21.0387 60.7586 21.1597C60.8802 21.2807 61.0246 21.3762 61.1836 21.4407C61.3425 21.5051 61.5127 21.5372 61.6842 21.5351L67.4199 21.5801H67.4249C68.7715 21.5801 69.8215 21.5961 70.8051 21.4206C71.7887 21.245 72.75 20.778 73.4249 19.9736C74.7745 18.3647 75.25 15.9856 76.4438 11.319C77.6376 6.65245 78.3502 4.38614 78.9403 3.68274C79.2353 3.33104 79.432 3.22484 80.0378 3.11664C80.6419 3.00884 81.6109 2.99756 82.9547 2.99756L88.6854 3.04254C88.8561 3.04614 89.0258 3.01578 89.1847 2.95325C89.3436 2.89071 89.4885 2.79721 89.611 2.67822C89.7335 2.55923 89.8311 2.4171 89.8982 2.26007C89.9653 2.10305 90.0005 1.9343 90.0018 1.76355C90.0032 1.5928 89.9706 1.42343 89.9059 1.26538C89.8413 1.10733 89.7459 0.96372 89.6253 0.842834C89.5047 0.721949 89.3613 0.626225 89.2034 0.561218C89.0455 0.496211 88.8762 0.463177 88.7055 0.464111L82.9698 0.419128H82.9648C82.6281 0.419128 82.3101 0.419434 82.0069 0.419434ZM43.9923 2.11865C43.7905 2.12447 43.5929 2.17757 43.4154 2.27368C43.238 2.3698 43.0855 2.50621 42.9704 2.672C42.8553 2.83779 42.7807 3.02833 42.7526 3.22821C42.7245 3.42809 42.7438 3.63173 42.8088 3.82281C43.2487 5.17791 43.4184 6.58164 43.578 8.07654C43.5945 8.24604 43.6445 8.41058 43.725 8.56067C43.8055 8.71075 43.9149 8.84343 44.047 8.95099C44.179 9.05854 44.3311 9.13885 44.4943 9.18732C44.6576 9.23578 44.8288 9.25143 44.9982 9.23334C45.1675 9.21525 45.3316 9.16377 45.481 9.08191C45.6303 9.00005 45.7619 8.88943 45.8683 8.75641C45.9746 8.62339 46.0536 8.47059 46.1006 8.30688C46.1475 8.14318 46.1616 7.97179 46.142 7.80261C45.9807 6.29171 45.8009 4.68903 45.2614 3.02673C45.1781 2.75747 45.009 2.52289 44.7798 2.35889C44.5506 2.19488 44.274 2.11052 43.9923 2.11865ZM56.4387 3.05164C56.2041 3.04652 55.9727 3.10548 55.7692 3.22217C55.5657 3.33885 55.3979 3.50882 55.2838 3.71381C55.1698 3.91879 55.1138 4.151 55.122 4.38544C55.1301 4.61987 55.2021 4.84768 55.3301 5.04425C56.4541 6.82465 57.2061 9.41212 57.2061 12.291C57.2061 15.1699 56.4541 17.7574 55.3301 19.5379C55.2367 19.6811 55.1728 19.8414 55.142 20.0095C55.1112 20.1775 55.1141 20.3501 55.1506 20.517C55.187 20.684 55.2563 20.8421 55.3544 20.982C55.4525 21.1219 55.5774 21.241 55.7219 21.3322C55.8664 21.4234 56.0276 21.485 56.1961 21.5134C56.3646 21.5417 56.5371 21.5364 56.7035 21.4975C56.8699 21.4586 57.027 21.387 57.1655 21.2869C57.304 21.1868 57.4212 21.0602 57.5103 20.9144C58.9504 18.6333 59.7846 15.6098 59.7846 12.291C59.7846 8.97222 58.9504 5.94876 57.5103 3.66766C57.3976 3.48345 57.2404 3.33047 57.0531 3.22284C56.8659 3.11521 56.6546 3.05634 56.4387 3.05164ZM33.5224 3.05261C33.3132 3.06355 33.1099 3.12531 32.9299 3.23248C32.75 3.33966 32.5989 3.48903 32.4896 3.66772C31.0496 5.94882 30.2154 8.97222 30.2154 12.291C30.2154 15.6098 31.0496 18.6333 32.4896 20.9144C32.5788 21.0602 32.696 21.1868 32.8345 21.2869C32.973 21.387 33.13 21.4586 33.2964 21.4975C33.4628 21.5364 33.6353 21.5417 33.8038 21.5134C33.9724 21.485 34.1336 21.4234 34.2781 21.3322C34.4226 21.241 34.5475 21.1219 34.6456 20.982C34.7436 20.8421 34.8129 20.684 34.8494 20.517C34.8859 20.3501 34.8888 20.1775 34.858 20.0095C34.8271 19.8414 34.7632 19.6811 34.6699 19.5379C33.5459 17.7574 32.7938 15.17 32.7938 12.291C32.7938 9.41212 33.5459 6.82475 34.6699 5.04425C34.7938 4.85407 34.8653 4.63455 34.8771 4.4079C34.889 4.18124 34.8408 3.95549 34.7375 3.75342C34.6341 3.55135 34.4793 3.38012 34.2885 3.25708C34.0978 3.13404 33.878 3.06348 33.6513 3.05261C33.6083 3.05046 33.5653 3.05046 33.5224 3.05261ZM51.7964 3.22522C51.4993 3.23311 51.214 3.34342 50.9889 3.53748C50.7638 3.73153 50.6126 3.99745 50.5609 4.29016C49.5749 9.45874 46.9448 13.4566 41.252 16.1275C41.0953 16.1972 40.954 16.2975 40.8365 16.4224C40.719 16.5474 40.6276 16.6946 40.5677 16.8553C40.5077 17.016 40.4805 17.1871 40.4875 17.3585C40.4945 17.5298 40.5357 17.6981 40.6085 17.8534C40.6814 18.0087 40.7845 18.1479 40.9118 18.2628C41.0392 18.3778 41.1882 18.4661 41.3501 18.5228C41.512 18.5794 41.6836 18.6031 41.8548 18.5926C42.026 18.5821 42.1934 18.5376 42.3472 18.4615C48.6898 15.4857 51.9878 10.5703 53.0937 4.77362C53.1328 4.58337 53.1284 4.38674 53.0809 4.19843C53.0333 4.01011 52.9438 3.83498 52.8191 3.6861C52.6943 3.53721 52.5376 3.41842 52.3605 3.33862C52.1834 3.25882 51.9906 3.22005 51.7964 3.22522ZM37.9799 3.26324C37.7675 3.27435 37.561 3.33787 37.3791 3.44812C37.1971 3.55837 37.0453 3.71195 36.9371 3.89514C36.8289 4.07833 36.7677 4.28541 36.759 4.49799C36.7503 4.71056 36.7943 4.92203 36.8871 5.11346C37.4902 6.40426 37.8312 7.77632 38.1733 9.2403C38.2094 9.40766 38.2784 9.56621 38.3764 9.7066C38.4744 9.847 38.5993 9.96646 38.744 10.058C38.8886 10.1496 39.0501 10.2115 39.2189 10.24C39.3877 10.2685 39.5605 10.2632 39.7272 10.2242C39.8939 10.1852 40.0512 10.1134 40.1899 10.013C40.3286 9.9126 40.4458 9.78562 40.5349 9.6394C40.624 9.49319 40.683 9.33066 40.7086 9.16138C40.7342 8.9921 40.7258 8.81945 40.6839 8.65344C40.3381 7.17396 39.9629 5.60533 39.2232 4.02203C39.1255 3.80505 38.9697 3.61934 38.7731 3.48541C38.5764 3.35149 38.3465 3.27459 38.1089 3.26324C38.0659 3.26109 38.0229 3.26109 37.9799 3.26324Z" fill="black"/>
</svg>
