<svg width="399" height="500" viewBox="0 0 399 500" fill="none" xmlns="http://www.w3.org/2000/svg">
<path d="M98.0894 496.396C87.5083 492.615 73.3296 483.492 68.2847 477.22C66.3281 474.787 66.1211 463.302 67.6623 442.662C68.9324 425.66 70.7327 401.468 71.6648 388.9L73.3593 366.051L58.4853 357.615C30.926 341.985 8.26272 312.31 1.71836 283.287L0 275.667L26.0211 288.159C62.0039 305.433 82.0703 310.1 119.49 309.893C164.641 309.643 208.088 298.698 269.842 272.016C299.922 259.018 304.863 255.954 301.367 252.457C299.998 251.089 289.278 254.424 276.814 260.105C247.823 273.319 198.199 290.336 170.059 296.718C141.43 303.21 95.2587 303.329 70.8816 296.975C52.7778 292.255 16.929 276.578 7.36631 269.199C1.38779 264.587 2.57605 253.659 9.84557 246.385C22.3416 233.893 189.119 192.922 204.093 198.672C208.382 200.314 208.629 197.768 206.906 169.814C202.19 93.3319 199.851 43.8018 200.907 42.7505C201.535 42.1177 218.251 45.4531 238.054 50.157C270.795 57.9328 301.839 64.2657 329.323 68.7746C335.445 69.7812 351.215 68.0613 368.21 64.5397C383.934 61.2847 397.088 59.0317 397.44 59.5425C398 60.3466 386.08 225.267 385.344 226.895C384.829 228.031 355.736 235.616 345.013 237.408C338.614 238.48 334.477 240.74 334.477 243.164C334.477 249.183 318.738 265.872 309.418 269.733C302.845 272.455 300.582 275.773 298.153 286.239C293.003 308.419 289.625 337.655 289.569 360.532C289.515 380.745 289.992 382.564 295.949 384.829C306.429 388.812 309.379 394.724 311.092 415.152L312.715 434.495L283.55 448.085C243.039 466.96 182.922 490.909 163.246 496.007C143.33 501.168 111.966 501.356 98.0894 496.396ZM185.532 270.381C225.257 260.147 251.574 249.782 251.574 244.364C251.574 242.104 240.596 234.751 226.66 227.677C197.193 212.722 193.175 212.524 139.162 223.369C85.3745 234.172 46.963 244.266 42.3946 248.799C38.8998 252.264 39.0219 253.518 43.3193 258.263C48.1587 263.612 67.5044 272.354 87.1717 278.079C104.34 283.077 150.178 279.489 185.532 270.381ZM296.536 54.8341C237.719 42.9218 202.031 33.2817 200.327 28.8398C199.446 26.5497 199.873 21.4304 201.268 17.4576C203.483 11.1574 206.773 9.59392 227.185 5.11934L250.565 0L321.326 14.0432C394.703 28.6076 400.382 30.7696 398.518 43.4131C397.89 47.6569 393.276 50.0081 378.036 53.8514C345.365 62.0917 333.089 62.2377 296.536 54.8341ZM302.876 16.2008C301.53 12.0911 288.912 10.1196 279.338 12.5214C267.193 15.571 272.381 19.715 288.34 19.715C299.636 19.715 303.707 18.7307 302.876 16.2008Z" fill="white"/>
</svg>
