<?xml version="1.0" encoding="UTF-8"?>
<svg xmlns="http://www.w3.org/2000/svg" xmlns:xlink="http://www.w3.org/1999/xlink" width="2100" height="2100" viewBox="0 0 2100 2100">
<rect x="-210" y="-210" width="2520" height="2520" fill="rgb(100%, 100%, 100%)" fill-opacity="1"/>
<path fill-rule="nonzero" fill="rgb(0%, 0%, 0%)" fill-opacity="1" d="M 784.238281 1696.378906 C 756.480469 1686.460938 719.285156 1662.527344 706.050781 1646.074219 C 700.917969 1639.691406 700.375 1609.5625 704.417969 1555.417969 C 707.75 1510.816406 712.472656 1447.351562 714.917969 1414.382812 L 719.363281 1354.441406 L 680.34375 1332.3125 C 608.046875 1291.308594 548.59375 1213.460938 531.425781 1137.324219 L 526.917969 1117.335938 L 595.179688 1150.105469 C 689.574219 1195.421875 742.214844 1207.664062 840.378906 1207.121094 C 958.824219 1206.464844 1072.800781 1177.753906 1234.800781 1107.757812 C 1313.710938 1073.660156 1326.671875 1065.621094 1317.5 1056.449219 C 1313.910156 1052.859375 1285.789062 1061.609375 1253.089844 1076.511719 C 1177.039062 1111.175781 1046.859375 1155.816406 973.039062 1172.558594 C 897.933594 1189.589844 776.8125 1189.902344 712.863281 1173.234375 C 665.371094 1160.851562 571.328125 1119.726562 546.242188 1100.367188 C 530.558594 1088.269531 533.675781 1059.601562 552.746094 1040.519531 C 585.527344 1007.75 1023.039062 900.269531 1062.320312 915.351562 C 1073.570312 919.660156 1074.21875 912.980469 1069.699219 839.648438 C 1057.328125 639.011719 1051.191406 509.078125 1053.960938 506.320312 C 1055.609375 504.660156 1099.460938 513.410156 1151.410156 525.75 C 1237.300781 546.148438 1318.738281 562.761719 1390.839844 574.589844 C 1406.898438 577.230469 1448.269531 572.71875 1492.851562 563.480469 C 1534.101562 554.941406 1568.609375 549.03125 1569.53125 550.371094 C 1571 552.480469 1539.730469 985.121094 1537.800781 989.390625 C 1536.449219 992.371094 1460.128906 1012.269531 1432 1016.96875 C 1415.210938 1019.78125 1404.359375 1025.710938 1404.359375 1032.070312 C 1404.359375 1047.859375 1363.070312 1091.640625 1338.621094 1101.769531 C 1321.378906 1108.910156 1315.441406 1117.613281 1309.070312 1145.070312 C 1295.558594 1203.253906 1286.699219 1279.949219 1286.550781 1339.964844 C 1286.410156 1392.988281 1287.660156 1397.761719 1303.289062 1403.703125 C 1330.78125 1414.152344 1338.519531 1429.660156 1343.011719 1483.25 L 1347.269531 1533.992188 L 1270.761719 1569.644531 C 1164.488281 1619.160156 1006.78125 1681.984375 955.164062 1695.359375 C 902.917969 1708.898438 820.640625 1709.390625 784.238281 1696.378906 Z M 1013.628906 1103.46875 C 1117.839844 1076.621094 1186.878906 1049.429688 1186.878906 1035.21875 C 1186.878906 1029.289062 1158.078125 1010 1121.519531 991.441406 C 1044.21875 952.210938 1033.679688 951.691406 891.984375 980.140625 C 750.882812 1008.480469 650.117188 1034.960938 638.132812 1046.851562 C 628.964844 1055.941406 629.285156 1059.230469 640.558594 1071.679688 C 653.253906 1085.710938 704.003906 1108.644531 755.597656 1123.664062 C 800.636719 1136.773438 920.882812 1127.363281 1013.628906 1103.46875 Z M 1304.828125 538.019531 C 1150.53125 506.769531 1056.910156 481.480469 1052.441406 469.828125 C 1050.128906 463.820312 1051.25 450.390625 1054.910156 439.96875 C 1060.71875 423.441406 1069.351562 419.339844 1122.898438 407.601562 L 1184.230469 394.171875 L 1369.859375 431.011719 C 1562.351562 469.21875 1577.25 474.890625 1572.359375 508.058594 C 1570.710938 519.191406 1558.609375 525.359375 1518.628906 535.441406 C 1432.921875 557.058594 1400.71875 557.441406 1304.828125 538.019531 Z M 1321.460938 436.671875 C 1317.929688 425.890625 1284.828125 420.71875 1259.710938 427.019531 C 1227.851562 435.019531 1241.460938 445.890625 1283.328125 445.890625 C 1312.960938 445.890625 1323.640625 443.308594 1321.460938 436.671875 Z M 1321.460938 436.671875 "/>
</svg>
